<svg xmlns="http://www.w3.org/2000/svg" viewBox="0 0 32 32"><circle cx="16" cy="16" r="14" fill="#96d7ff"/><path fill="#6d6daa" d="M16 31a15 15 0 1115-15 15 15 0 01-15 15zm0-28a13 13 0 1013 13A13 13 0 0016 3z"/><path fill="#91e085" d="M2 16a13.92 13.92 0 003.42 9.15l1.52-1.22a4.09 4.09 0 001.52-3.5 1.24 1.24 0 011.45-1.32A3.5 3.5 0 0014 16.24a5.72 5.72 0 00-1.36-4.75l-.64-.73a1.25 1.25 0 01.3-1.9 1.24 1.24 0 00.62-1.07 5 5 0 00-2.8-4.46A14 14 0 002 16z"/><path fill="#6d6daa" d="M5.42 26.15a1 1 0 01-.76-.35 15 15 0 015-23.38 1 1 0 01.86 0 6 6 0 013.36 5.36 2.25 2.25 0 01-1.11 1.93.26.26 0 00-.12.17.21.21 0 00.06.2l.64.74A6.68 6.68 0 0115 16.41a4.5 4.5 0 01-5.21 3.68.25.25 0 00-.21.06.27.27 0 00-.08.2 5 5 0 01-1.89 4.36L6 25.93a1 1 0 01-.58.22zm4.63-21.7a13 13 0 00-4.48 19.29l.74-.59a3.06 3.06 0 001.15-2.64 2.25 2.25 0 012.62-2.39A2.44 2.44 0 0012 17.7a2.51 2.51 0 001-1.63 4.72 4.72 0 00-1.13-3.92l-.64-.73A2.24 2.24 0 0111.75 8a.26.26 0 00.13-.21 4 4 0 00-1.83-3.34z"/><path fill="#91e085" d="M19.18 2.38a8.78 8.78 0 00.44 6.19l.45 1a2.21 2.21 0 01.19 1.19 2.21 2.21 0 001.91 2.45l.95.13A2.21 2.21 0 0125 15.16a2.85 2.85 0 001.87 2.23l2.89 1A13.56 13.56 0 0030 16 14 14 0 0019.18 2.38z"/><path fill="#6d6daa" d="M29.78 19.4a1 1 0 01-.33-.06l-2.89-1a3.83 3.83 0 01-2.53-3 1.21 1.21 0 00-1-1L22 14.19a3.21 3.21 0 01-2.77-3.56 1.21 1.21 0 00-.11-.65l-.45-1a9.78 9.78 0 01-.48-6.9 1 1 0 011.18-.69A14.94 14.94 0 0131 16a15.9 15.9 0 01-.23 2.57 1 1 0 01-.48.69 1 1 0 01-.51.14zM19.92 3.62a7.85 7.85 0 00.6 4.53l.46 1a3.18 3.18 0 01.27 1.72 1.22 1.22 0 001.05 1.35l.95.13A3.17 3.17 0 0126 15a1.87 1.87 0 001.22 1.45l1.73.6c0-.36.05-.71.05-1.05a12.93 12.93 0 00-9.08-12.38z"/><path fill="#91e085" d="M16 30a14 14 0 0011.6-6.16l-.77-1a2.55 2.55 0 00-3.92-.24.61.61 0 01-1-.13l-.44-.82a1.6 1.6 0 00-2.44-.44 36.92 36.92 0 00-7 8.26A14.34 14.34 0 0016 30z"/><path fill="#6d6daa" d="M16 31a15.29 15.29 0 01-4.23-.61 1 1 0 01-.56-1.49 37.21 37.21 0 017.19-8.48 2.57 2.57 0 014 .71l.21.38a3.66 3.66 0 012.39-.75 3.59 3.59 0 012.65 1.44l.77 1a1 1 0 010 1.16A15 15 0 0116 31zm-2.34-2.22a13.05 13.05 0 0012.71-4.93l-.37-.46a1.58 1.58 0 00-1.16-.63 1.53 1.53 0 00-1.23.49 1.63 1.63 0 01-2.59-.34l-.44-.82a.58.58 0 00-.41-.3.56.56 0 00-.49.14 35.75 35.75 0 00-6.02 6.85z"/></svg>