<?xml version="1.0" encoding="UTF-8"?>
<svg xmlns="http://www.w3.org/2000/svg" xmlns:xlink="http://www.w3.org/1999/xlink" width="375pt" height="374.999991pt" viewBox="0 0 375 374.999991" version="1.2">
<defs>
<clipPath id="clip1">
  <path d="M 27 31.976562 L 346 31.976562 L 346 343.226562 L 27 343.226562 Z M 27 31.976562 "/>
</clipPath>
</defs>
<g id="surface1">
<path style=" stroke:none;fill-rule:nonzero;fill:rgb(29.798889%,74.508667%,84.309387%);fill-opacity:1;" d="M 340.554688 187.714844 C 340.554688 272.632812 271.75 341.472656 186.871094 341.472656 C 101.996094 341.472656 33.1875 272.632812 33.1875 187.714844 C 33.1875 102.796875 101.996094 33.957031 186.871094 33.957031 C 271.75 33.957031 340.554688 102.796875 340.554688 187.714844 "/>
<path style=" stroke:none;fill-rule:nonzero;fill:rgb(17.248535%,50.19989%,50.979614%);fill-opacity:1;" d="M 340.554688 187.714844 C 340.554688 200.972656 338.878906 213.839844 335.726562 226.109375 C 306.226562 239.890625 274.820312 196.539062 266.960938 158.777344 C 259.773438 124.257812 235.484375 120.578125 220.191406 118.0625 C 176.984375 110.945312 150.761719 61.433594 166.335938 35.328125 C 173.054688 34.429688 179.910156 33.957031 186.871094 33.957031 C 271.75 33.957031 340.554688 102.796875 340.554688 187.714844 Z M 128.445312 202.734375 C 124.722656 202.707031 120.996094 199.445312 121.722656 192.605469 C 122.5 185.320312 127.914062 178.445312 128.445312 177.78125 C 128.980469 178.445312 134.390625 185.320312 135.167969 192.605469 C 135.898438 199.445312 132.171875 202.707031 128.445312 202.734375 Z M 206.980469 216.230469 C 156.046875 220.125 157.308594 177.605469 151.097656 158.5 C 134.820312 108.417969 70.683594 122.167969 39.550781 143.839844 C 35.417969 157.742188 33.1875 172.46875 33.1875 187.714844 C 33.1875 253.074219 73.953125 308.898438 131.425781 331.152344 C 137.773438 289.503906 174.183594 298.800781 193.007812 300.699219 C 232.390625 304.664062 254.679688 274.1875 258.605469 254.511719 C 267.519531 209.847656 222.996094 215.003906 206.980469 216.230469 "/>
<path style=" stroke:none;fill-rule:nonzero;fill:rgb(100%,100%,100%);fill-opacity:1;" d="M 284.953125 99.414062 C 285.339844 99.847656 285.882812 100.070312 286.421875 100.070312 C 286.894531 100.070312 287.367188 99.898438 287.742188 99.558594 C 288.554688 98.828125 288.621094 97.578125 287.890625 96.765625 C 269.652344 76.507812 246.144531 62.328125 219.910156 55.75 C 218.855469 55.488281 217.777344 56.128906 217.511719 57.1875 C 217.246094 58.25 217.890625 59.324219 218.949219 59.589844 C 244.421875 65.972656 267.242188 79.746094 284.953125 99.414062 Z M 305.050781 120.507812 C 304.511719 119.558594 303.300781 119.230469 302.351562 119.769531 C 301.40625 120.3125 301.074219 121.519531 301.613281 122.46875 C 312.910156 142.273438 318.878906 164.832031 318.878906 187.714844 C 318.878906 204.378906 315.800781 220.632812 309.734375 236.023438 C 309.332031 237.039062 309.832031 238.1875 310.847656 238.589844 C 311.085938 238.683594 311.332031 238.730469 311.574219 238.730469 C 312.359375 238.730469 313.105469 238.253906 313.414062 237.476562 C 319.664062 221.621094 322.832031 204.878906 322.832031 187.714844 C 322.832031 164.144531 316.683594 140.90625 305.050781 120.507812 Z M 294.226562 267.859375 C 293.363281 267.191406 292.121094 267.351562 291.453125 268.21875 C 279.367188 283.898438 263.664062 296.878906 246.046875 305.753906 C 245.074219 306.246094 244.679688 307.4375 245.171875 308.414062 C 245.519531 309.101562 246.214844 309.5 246.9375 309.5 C 247.238281 309.5 247.542969 309.433594 247.828125 309.289062 C 265.96875 300.148438 282.136719 286.78125 294.585938 270.632812 C 295.25 269.769531 295.089844 268.527344 294.226562 267.859375 Z M 133.203125 192.816406 C 132.714844 188.25 130.152344 183.730469 128.445312 181.164062 C 126.742188 183.730469 124.179688 188.25 123.691406 192.816406 C 123.394531 195.601562 123.910156 197.832031 125.183594 199.253906 C 126.035156 200.214844 127.199219 200.746094 128.460938 200.753906 C 129.691406 200.746094 130.855469 200.214844 131.710938 199.253906 C 132.984375 197.832031 133.5 195.601562 133.203125 192.816406 Z M 129.988281 176.542969 C 130.628906 177.339844 136.300781 184.582031 137.132812 192.398438 C 137.664062 197.359375 136.082031 200.296875 134.664062 201.890625 C 133.054688 203.695312 130.851562 204.695312 128.460938 204.710938 C 126.042969 204.695312 123.839844 203.695312 122.230469 201.890625 C 120.8125 200.296875 119.230469 197.359375 119.757812 192.398438 C 120.589844 184.578125 126.261719 177.339844 126.90625 176.539062 C 127.28125 176.074219 127.847656 175.804688 128.445312 175.804688 C 129.042969 175.804688 129.609375 176.074219 129.988281 176.542969 Z M 195.742188 34.269531 C 115.386719 39.28125 51.761719 106.058594 51.761719 187.714844 C 51.761719 269.371094 115.386719 336.148438 195.742188 341.160156 C 192.53125 341.359375 189.296875 341.472656 186.035156 341.472656 C 101.160156 341.472656 32.351562 272.632812 32.351562 187.714844 C 32.351562 102.796875 101.160156 33.957031 186.035156 33.957031 C 189.296875 33.957031 192.53125 34.070312 195.742188 34.269531 "/>
<g clip-path="url(#clip1)" clip-rule="nonzero">
<path style=" stroke:none;fill-rule:nonzero;fill:rgb(20.779419%,7.839966%,16.859436%);fill-opacity:1;" d="M 339.226562 230.730469 C 338.164062 232.714844 336.671875 234.78125 334.613281 236.84375 C 337.296875 228.757812 339.316406 220.441406 340.640625 211.964844 C 342.085938 216.785156 342.929688 223.804688 339.226562 230.730469 Z M 341.660156 204.171875 C 342.234375 198.734375 342.535156 193.242188 342.535156 187.714844 C 342.535156 175.949219 341.21875 164.222656 338.621094 152.859375 C 338.375 151.796875 337.316406 151.128906 336.25 151.371094 C 335.1875 151.613281 334.519531 152.675781 334.761719 153.742188 C 337.296875 164.816406 338.578125 176.246094 338.578125 187.714844 C 338.578125 206.34375 335.1875 224.554688 328.730469 241.585938 C 317.625 248.914062 297.335938 255.277344 260.644531 256.445312 L 239.949219 247.847656 C 238.941406 247.433594 237.78125 247.910156 237.363281 248.917969 C 236.945312 249.925781 237.421875 251.085938 238.433594 251.503906 L 250.464844 256.5 L 238.65625 256.550781 C 237.5625 256.554688 236.683594 257.445312 236.6875 258.539062 C 236.695312 259.628906 237.578125 260.507812 238.667969 260.507812 C 238.667969 260.507812 238.671875 260.507812 238.675781 260.507812 L 250.996094 260.457031 L 238.460938 266.109375 C 237.464844 266.558594 237.019531 267.730469 237.46875 268.726562 C 237.796875 269.460938 238.519531 269.890625 239.269531 269.890625 C 239.542969 269.890625 239.820312 269.835938 240.085938 269.714844 L 260.742188 260.402344 C 290.089844 259.46875 311.992188 255.210938 326.257812 247.703125 C 319.507812 263.394531 310.09375 277.964844 298.25 290.773438 C 297.507812 291.574219 297.554688 292.824219 298.355469 293.570312 C 298.738281 293.921875 299.21875 294.097656 299.699219 294.097656 C 300.230469 294.097656 300.761719 293.882812 301.148438 293.460938 C 314.5625 278.960938 324.941406 262.265625 331.953125 244.246094 C 336.78125 240.867188 340.382812 236.96875 342.738281 232.550781 C 349.664062 219.53125 343.15625 206.785156 341.660156 204.171875 Z M 200.484375 201.117188 C 201.035156 202.0625 200.710938 203.269531 199.765625 203.816406 C 199.457031 203.996094 199.113281 204.085938 198.777344 204.085938 C 198.09375 204.085938 197.433594 203.730469 197.0625 203.097656 C 194.960938 199.460938 191.054688 197.203125 186.871094 197.203125 C 182.695312 197.203125 178.789062 199.460938 176.683594 203.097656 C 176.132812 204.042969 174.925781 204.367188 173.980469 203.816406 C 173.035156 203.269531 172.710938 202.0625 173.261719 201.117188 C 176.070312 196.257812 181.285156 193.246094 186.871094 193.246094 C 192.460938 193.246094 197.675781 196.257812 200.484375 201.117188 Z M 222.140625 162.296875 C 223.085938 161.75 224.292969 162.070312 224.839844 163.015625 C 226.945312 166.652344 230.851562 168.914062 235.03125 168.914062 C 239.210938 168.914062 243.117188 166.652344 245.222656 163.015625 C 245.769531 162.070312 246.980469 161.75 247.925781 162.296875 C 248.871094 162.84375 249.191406 164.054688 248.644531 165 C 245.835938 169.851562 240.617188 172.871094 235.03125 172.871094 C 229.445312 172.871094 224.230469 169.851562 221.417969 165 C 220.871094 164.054688 221.191406 162.84375 222.140625 162.296875 Z M 126.734375 165 C 126.1875 164.054688 126.511719 162.84375 127.457031 162.296875 C 128.402344 161.75 129.609375 162.070312 130.15625 163.015625 C 132.261719 166.652344 136.167969 168.914062 140.351562 168.914062 C 144.527344 168.914062 148.433594 166.652344 150.539062 163.015625 C 151.085938 162.070312 152.296875 161.75 153.242188 162.296875 C 154.1875 162.84375 154.507812 164.054688 153.960938 165 C 151.152344 169.851562 145.933594 172.871094 140.351562 172.871094 C 134.761719 172.871094 129.546875 169.851562 126.734375 165 Z M 126.765625 138.089844 C 126.1875 137.164062 126.472656 135.941406 127.402344 135.367188 L 147.941406 122.578125 C 148.867188 122 150.085938 122.285156 150.664062 123.214844 C 151.242188 124.140625 150.957031 125.359375 150.027344 125.9375 L 129.488281 138.722656 C 129.164062 138.929688 128.804688 139.023438 128.445312 139.023438 C 127.785156 139.023438 127.140625 138.691406 126.765625 138.089844 Z M 223.082031 123.214844 C 223.660156 122.285156 224.878906 122 225.804688 122.578125 L 246.34375 135.367188 C 247.273438 135.941406 247.558594 137.164062 246.980469 138.089844 C 246.605469 138.691406 245.960938 139.023438 245.300781 139.023438 C 244.945312 139.023438 244.582031 138.929688 244.257812 138.722656 L 223.71875 125.9375 C 222.789062 125.359375 222.503906 124.140625 223.082031 123.214844 Z M 276.167969 62.542969 C 276.8125 61.664062 278.050781 61.472656 278.933594 62.121094 C 301.925781 79.019531 319.835938 101.832031 330.722656 128.097656 C 331.136719 129.105469 330.660156 130.265625 329.652344 130.683594 C 329.402344 130.785156 329.148438 130.835938 328.894531 130.835938 C 328.117188 130.835938 327.382812 130.375 327.066406 129.613281 C 316.457031 104.015625 299.003906 81.78125 276.589844 65.308594 C 275.710938 64.660156 275.519531 63.421875 276.167969 62.542969 Z M 36.09375 240.953125 C 30.863281 235.789062 30.128906 226.484375 33.816406 216.261719 C 35.605469 225.972656 38.300781 235.433594 41.867188 244.550781 C 39.269531 243.558594 37.414062 242.253906 36.09375 240.953125 Z M 116.875 225.207031 L 125.425781 216.457031 L 126.261719 223.566406 Z M 280.226562 307.363281 C 253.351562 328.386719 221.070312 339.496094 186.871094 339.496094 C 125.394531 339.496094 72.339844 302.714844 48.53125 249.992188 C 49.679688 250.085938 50.863281 250.140625 52.09375 250.140625 C 54.644531 250.140625 57.382812 249.9375 60.296875 249.519531 C 73.945312 247.574219 91.277344 241.039062 111.8125 230.101562 L 128.785156 227.144531 C 129.820312 226.964844 130.53125 226.007812 130.410156 224.964844 L 129.171875 214.457031 L 133.808594 215.148438 C 134.882812 215.308594 135.894531 214.566406 136.054688 213.484375 C 136.21875 212.402344 135.472656 211.394531 134.390625 211.238281 L 127.199219 210.160156 C 127.183594 210.15625 127.167969 210.160156 127.148438 210.160156 C 127.042969 210.148438 126.929688 210.144531 126.816406 210.148438 C 126.78125 210.152344 126.746094 210.148438 126.707031 210.152344 C 126.695312 210.152344 126.6875 210.152344 126.675781 210.152344 C 126.382812 210.183594 126.121094 210.285156 125.886719 210.425781 C 125.855469 210.449219 125.824219 210.472656 125.789062 210.496094 C 125.703125 210.554688 125.621094 210.617188 125.546875 210.691406 C 125.53125 210.707031 125.507812 210.714844 125.492188 210.734375 L 109.972656 226.601562 C 81.652344 241.6875 63.675781 246.230469 52.292969 246.230469 C 50.226562 246.230469 48.382812 246.078125 46.730469 245.8125 C 39.285156 227.910156 35.167969 208.285156 35.167969 187.714844 C 35.167969 104.023438 103.222656 35.933594 186.871094 35.933594 C 211.203125 35.933594 235.386719 41.832031 256.816406 52.992188 C 257.785156 53.496094 258.976562 53.121094 259.480469 52.148438 C 259.984375 51.183594 259.609375 49.988281 258.640625 49.484375 C 236.648438 38.03125 211.832031 31.976562 186.871094 31.976562 C 145.296875 31.976562 106.203125 48.179688 76.804688 77.59375 C 47.40625 107.007812 31.210938 146.113281 31.210938 187.714844 C 31.210938 194.890625 31.707031 201.988281 32.652344 208.976562 C 25.558594 223.050781 25.796875 236.34375 33.316406 243.769531 C 36.027344 246.445312 39.535156 248.277344 43.808594 249.269531 C 51.507812 267.175781 62.613281 283.636719 76.804688 297.839844 C 106.203125 327.25 145.296875 343.453125 186.871094 343.453125 C 221.960938 343.453125 255.085938 332.050781 282.664062 310.480469 C 283.523438 309.808594 283.675781 308.566406 283.003906 307.703125 C 282.332031 306.84375 281.085938 306.691406 280.226562 307.363281 "/>
</g>
</g>
</svg>
